<svg width="236" height="500" viewBox="0 0 236 500" fill="none" xmlns="http://www.w3.org/2000/svg">
<circle cx="32.7323" cy="3.84147" r="8" transform="rotate(-9.15856 32.7323 3.84147)" fill="white"/>
<circle cx="56.4264" cy="0.0216486" r="8" transform="rotate(-9.15856 56.4264 0.0216486)" fill="white"/>
<circle cx="80.1203" cy="-3.79866" r="8" transform="rotate(-9.15856 80.1203 -3.79866)" fill="white"/>
<circle cx="103.814" cy="-7.61849" r="8" transform="rotate(-9.15856 103.814 -7.61849)" fill="white"/>
<circle cx="36.5523" cy="27.5353" r="8" transform="rotate(-9.15856 36.5523 27.5353)" fill="white"/>
<circle cx="60.2464" cy="23.7155" r="8" transform="rotate(-9.15856 60.2464 23.7155)" fill="white"/>
<circle cx="83.9404" cy="19.8952" r="8" transform="rotate(-9.15856 83.9404 19.8952)" fill="white"/>
<circle cx="107.634" cy="16.0754" r="8" transform="rotate(-9.15856 107.634 16.0754)" fill="white"/>
<circle cx="131.328" cy="12.255" r="8" transform="rotate(-9.15856 131.328 12.255)" fill="white"/>
<circle cx="40.3723" cy="51.2297" r="8" transform="rotate(-9.15856 40.3723 51.2297)" fill="white"/>
<circle cx="64.0664" cy="47.4098" r="8" transform="rotate(-9.15856 64.0664 47.4098)" fill="white"/>
<circle cx="87.7603" cy="43.5895" r="8" transform="rotate(-9.15856 87.7603 43.5895)" fill="white"/>
<circle cx="111.454" cy="39.7697" r="8" transform="rotate(-9.15856 111.454 39.7697)" fill="white"/>
<circle cx="135.148" cy="35.9494" r="8" transform="rotate(-9.15856 135.148 35.9494)" fill="white"/>
<circle cx="44.1923" cy="74.924" r="8" transform="rotate(-9.15856 44.1923 74.924)" fill="white"/>
<circle cx="67.8864" cy="71.1042" r="8" transform="rotate(-9.15856 67.8864 71.1042)" fill="white"/>
<circle cx="91.5804" cy="67.2839" r="8" transform="rotate(-9.15856 91.5804 67.2839)" fill="white"/>
<circle cx="115.274" cy="63.464" r="8" transform="rotate(-9.15856 115.274 63.464)" fill="white"/>
<circle cx="138.968" cy="59.6437" r="8" transform="rotate(-9.15856 138.968 59.6437)" fill="white"/>
<circle cx="48.0124" cy="98.6178" r="8" transform="rotate(-9.15856 48.0124 98.6178)" fill="white"/>
<circle cx="71.7065" cy="94.798" r="8" transform="rotate(-9.15856 71.7065 94.798)" fill="white"/>
<circle cx="95.4005" cy="90.9777" r="8" transform="rotate(-9.15856 95.4005 90.9777)" fill="white"/>
<circle cx="119.095" cy="87.1579" r="8" transform="rotate(-9.15856 119.095 87.1579)" fill="white"/>
<circle cx="142.789" cy="83.3376" r="8" transform="rotate(-9.15856 142.789 83.3376)" fill="white"/>
<circle cx="51.8324" cy="122.312" r="8" transform="rotate(-9.15856 51.8324 122.312)" fill="white"/>
<circle cx="75.5265" cy="118.492" r="8" transform="rotate(-9.15856 75.5265 118.492)" fill="white"/>
<circle cx="99.2204" cy="114.672" r="8" transform="rotate(-9.15856 99.2204 114.672)" fill="white"/>
<circle cx="122.915" cy="110.852" r="8" transform="rotate(-9.15856 122.915 110.852)" fill="white"/>
<circle cx="146.608" cy="107.032" r="8" transform="rotate(-9.15856 146.608 107.032)" fill="white"/>
<circle cx="55.6523" cy="146.006" r="8" transform="rotate(-9.15856 55.6523 146.006)" fill="white"/>
<circle cx="79.3464" cy="142.186" r="8" transform="rotate(-9.15856 79.3464 142.186)" fill="white"/>
<circle cx="103.04" cy="138.366" r="8" transform="rotate(-9.15856 103.04 138.366)" fill="white"/>
<circle cx="126.734" cy="134.546" r="8" transform="rotate(-9.15856 126.734 134.546)" fill="white"/>
<circle cx="150.428" cy="130.726" r="8" transform="rotate(-9.15856 150.428 130.726)" fill="white"/>
<circle cx="59.4724" cy="169.7" r="8" transform="rotate(-9.15856 59.4724 169.7)" fill="white"/>
<circle cx="83.1665" cy="165.88" r="8" transform="rotate(-9.15856 83.1665 165.88)" fill="white"/>
<circle cx="106.86" cy="162.06" r="8" transform="rotate(-9.15856 106.86 162.06)" fill="white"/>
<circle cx="130.555" cy="158.24" r="8" transform="rotate(-9.15856 130.555 158.24)" fill="white"/>
<circle cx="154.249" cy="154.42" r="8" transform="rotate(-9.15856 154.249 154.42)" fill="white"/>
<circle cx="63.2923" cy="193.394" r="8" transform="rotate(-9.15856 63.2923 193.394)" fill="white"/>
<circle cx="86.9864" cy="189.574" r="8" transform="rotate(-9.15856 86.9864 189.574)" fill="white"/>
<circle cx="110.68" cy="185.754" r="8" transform="rotate(-9.15856 110.68 185.754)" fill="white"/>
<circle cx="134.374" cy="181.934" r="8" transform="rotate(-9.15856 134.374 181.934)" fill="white"/>
<circle cx="158.068" cy="178.114" r="8" transform="rotate(-9.15856 158.068 178.114)" fill="white"/>
<circle cx="67.1124" cy="217.088" r="8" transform="rotate(-9.15856 67.1124 217.088)" fill="white"/>
<circle cx="90.8065" cy="213.268" r="8" transform="rotate(-9.15856 90.8065 213.268)" fill="white"/>
<circle cx="114.5" cy="209.448" r="8" transform="rotate(-9.15856 114.5 209.448)" fill="white"/>
<circle cx="138.195" cy="205.628" r="8" transform="rotate(-9.15856 138.195 205.628)" fill="white"/>
<circle cx="161.889" cy="201.808" r="8" transform="rotate(-9.15856 161.889 201.808)" fill="white"/>
<circle cx="70.9325" cy="240.782" r="8" transform="rotate(-9.15856 70.9325 240.782)" fill="white"/>
<circle cx="94.6265" cy="236.962" r="8" transform="rotate(-9.15856 94.6265 236.962)" fill="white"/>
<circle cx="118.321" cy="233.142" r="8" transform="rotate(-9.15856 118.321 233.142)" fill="white"/>
<circle cx="142.015" cy="229.322" r="8" transform="rotate(-9.15856 142.015 229.322)" fill="white"/>
<circle cx="165.709" cy="225.502" r="8" transform="rotate(-9.15856 165.709 225.502)" fill="white"/>
<circle cx="74.7524" cy="264.476" r="8" transform="rotate(-9.15856 74.7524 264.476)" fill="white"/>
<circle cx="98.4465" cy="260.656" r="8" transform="rotate(-9.15856 98.4465 260.656)" fill="white"/>
<circle cx="122.14" cy="256.836" r="8" transform="rotate(-9.15856 122.14 256.836)" fill="white"/>
<circle cx="145.835" cy="253.016" r="8" transform="rotate(-9.15856 145.835 253.016)" fill="white"/>
<circle cx="169.529" cy="249.196" r="8" transform="rotate(-9.15856 169.529 249.196)" fill="white"/>
<circle cx="78.5725" cy="288.17" r="8" transform="rotate(-9.15856 78.5725 288.17)" fill="white"/>
<circle cx="102.267" cy="284.35" r="8" transform="rotate(-9.15856 102.267 284.35)" fill="white"/>
<circle cx="125.961" cy="280.53" r="8" transform="rotate(-9.15856 125.961 280.53)" fill="white"/>
<circle cx="149.655" cy="276.71" r="8" transform="rotate(-9.15856 149.655 276.71)" fill="white"/>
<circle cx="173.349" cy="272.89" r="8" transform="rotate(-9.15856 173.349 272.89)" fill="white"/>
<circle cx="82.3925" cy="311.864" r="8" transform="rotate(-9.15856 82.3925 311.864)" fill="white"/>
<circle cx="106.087" cy="308.044" r="8" transform="rotate(-9.15856 106.087 308.044)" fill="white"/>
<circle cx="129.781" cy="304.224" r="8" transform="rotate(-9.15856 129.781 304.224)" fill="white"/>
<circle cx="153.475" cy="300.404" r="8" transform="rotate(-9.15856 153.475 300.404)" fill="white"/>
<circle cx="177.169" cy="296.584" r="8" transform="rotate(-9.15856 177.169 296.584)" fill="white"/>
<circle cx="86.2125" cy="335.558" r="8" transform="rotate(-9.15856 86.2125 335.558)" fill="white"/>
<circle cx="109.907" cy="331.738" r="8" transform="rotate(-9.15856 109.907 331.738)" fill="white"/>
<circle cx="133.601" cy="327.918" r="8" transform="rotate(-9.15856 133.601 327.918)" fill="white"/>
<circle cx="157.295" cy="324.098" r="8" transform="rotate(-9.15856 157.295 324.098)" fill="white"/>
<circle cx="180.989" cy="320.278" r="8" transform="rotate(-9.15856 180.989 320.278)" fill="white"/>
<circle cx="90.0324" cy="359.252" r="8" transform="rotate(-9.15856 90.0324 359.252)" fill="white"/>
<circle cx="113.727" cy="355.432" r="8" transform="rotate(-9.15856 113.727 355.432)" fill="white"/>
<circle cx="137.421" cy="351.612" r="8" transform="rotate(-9.15856 137.421 351.612)" fill="white"/>
<circle cx="161.115" cy="347.792" r="8" transform="rotate(-9.15856 161.115 347.792)" fill="white"/>
<circle cx="184.809" cy="343.972" r="8" transform="rotate(-9.15856 184.809 343.972)" fill="white"/>
<circle cx="93.8525" cy="382.946" r="8" transform="rotate(-9.15856 93.8525 382.946)" fill="white"/>
<circle cx="117.547" cy="379.126" r="8" transform="rotate(-9.15856 117.547 379.126)" fill="white"/>
<circle cx="141.241" cy="375.306" r="8" transform="rotate(-9.15856 141.241 375.306)" fill="white"/>
<circle cx="164.935" cy="371.486" r="8" transform="rotate(-9.15856 164.935 371.486)" fill="white"/>
<circle cx="188.629" cy="367.666" r="8" transform="rotate(-9.15856 188.629 367.666)" fill="white"/>
<circle cx="97.6724" cy="406.64" r="8" transform="rotate(-9.15856 97.6724 406.64)" fill="white"/>
<circle cx="121.367" cy="402.82" r="8" transform="rotate(-9.15856 121.367 402.82)" fill="white"/>
<circle cx="145.061" cy="399" r="8" transform="rotate(-9.15856 145.061 399)" fill="white"/>
<circle cx="168.755" cy="395.18" r="8" transform="rotate(-9.15856 168.755 395.18)" fill="white"/>
<circle cx="192.449" cy="391.36" r="8" transform="rotate(-9.15856 192.449 391.36)" fill="white"/>
<circle cx="101.493" cy="430.334" r="8" transform="rotate(-9.15856 101.493 430.334)" fill="white"/>
<circle cx="125.187" cy="426.514" r="8" transform="rotate(-9.15856 125.187 426.514)" fill="white"/>
<circle cx="148.881" cy="422.694" r="8" transform="rotate(-9.15856 148.881 422.694)" fill="white"/>
<circle cx="172.575" cy="418.874" r="8" transform="rotate(-9.15856 172.575 418.874)" fill="white"/>
<circle cx="196.269" cy="415.054" r="8" transform="rotate(-9.15856 196.269 415.054)" fill="white"/>
<circle cx="105.313" cy="454.028" r="8" transform="rotate(-9.15856 105.313 454.028)" fill="white"/>
<circle cx="129.007" cy="450.208" r="8" transform="rotate(-9.15856 129.007 450.208)" fill="white"/>
<circle cx="152.701" cy="446.388" r="8" transform="rotate(-9.15856 152.701 446.388)" fill="white"/>
<circle cx="176.395" cy="442.568" r="8" transform="rotate(-9.15856 176.395 442.568)" fill="white"/>
<circle cx="200.089" cy="438.748" r="8" transform="rotate(-9.15856 200.089 438.748)" fill="white"/>
<circle cx="109.133" cy="477.722" r="8" transform="rotate(-9.15856 109.133 477.722)" fill="white"/>
<circle cx="132.827" cy="473.902" r="8" transform="rotate(-9.15856 132.827 473.902)" fill="white"/>
<circle cx="156.521" cy="470.082" r="8" transform="rotate(-9.15856 156.521 470.082)" fill="white"/>
<circle cx="180.215" cy="466.262" r="8" transform="rotate(-9.15856 180.215 466.262)" fill="white"/>
<circle cx="203.909" cy="462.442" r="8" transform="rotate(-9.15856 203.909 462.442)" fill="white"/>
<circle cx="112.952" cy="501.417" r="8" transform="rotate(-9.15856 112.952 501.417)" fill="white"/>
<circle cx="136.647" cy="497.597" r="8" transform="rotate(-9.15856 136.647 497.597)" fill="white"/>
<circle cx="160.341" cy="493.777" r="8" transform="rotate(-9.15856 160.341 493.777)" fill="white"/>
<circle cx="184.035" cy="489.957" r="8" transform="rotate(-9.15856 184.035 489.957)" fill="white"/>
<circle cx="207.729" cy="486.136" r="8" transform="rotate(-9.15856 207.729 486.136)" fill="white"/>
</svg>
