<svg width="110" height="91" viewBox="0 0 110 91" fill="none" xmlns="http://www.w3.org/2000/svg">
<circle cx="7.19918" cy="6.99642" r="6.42367" fill="#F47F22"/>
<circle cx="26.4704" cy="6.99642" r="6.42367" fill="#F47F22"/>
<circle cx="45.7413" cy="6.99642" r="6.42367" fill="#F47F22"/>
<circle cx="65.0123" cy="6.99642" r="6.42367" fill="#F47F22"/>
<circle cx="84.2829" cy="6.99642" r="6.42367" fill="#F47F22"/>
<circle cx="103.554" cy="6.99642" r="6.42367" fill="#F47F22"/>
<circle cx="7.19918" cy="26.2674" r="6.42367" fill="#F47F22"/>
<circle cx="26.4704" cy="26.2674" r="6.42367" fill="#F47F22"/>
<circle cx="45.7413" cy="26.2674" r="6.42367" fill="#F47F22"/>
<circle cx="65.0123" cy="26.2674" r="6.42367" fill="#F47F22"/>
<circle cx="84.2829" cy="26.2674" r="6.42367" fill="#F47F22"/>
<circle cx="103.554" cy="26.2674" r="6.42367" fill="#F47F22"/>
<circle cx="7.19918" cy="45.5384" r="6.42367" fill="#F47F22"/>
<circle cx="26.4704" cy="45.5384" r="6.42367" fill="#F47F22"/>
<circle cx="45.7413" cy="45.5384" r="6.42367" fill="#F47F22"/>
<circle cx="65.0123" cy="45.5384" r="6.42367" fill="#F47F22"/>
<circle cx="84.2829" cy="45.5384" r="6.42367" fill="#F47F22"/>
<circle cx="103.554" cy="45.5384" r="6.42367" fill="#F47F22"/>
<circle cx="7.19918" cy="64.8094" r="6.42367" fill="#F47F22"/>
<circle cx="26.4704" cy="64.8094" r="6.42367" fill="#F47F22"/>
<circle cx="45.7413" cy="64.8094" r="6.42367" fill="#F47F22"/>
<circle cx="65.0123" cy="64.8094" r="6.42367" fill="#F47F22"/>
<circle cx="84.2829" cy="64.8094" r="6.42367" fill="#F47F22"/>
<circle cx="103.554" cy="64.8094" r="6.42367" fill="#F47F22"/>
<circle cx="7.19918" cy="84.0804" r="6.42367" fill="#F47F22"/>
<circle cx="26.4704" cy="84.0804" r="6.42367" fill="#F47F22"/>
<circle cx="45.7413" cy="84.0804" r="6.42367" fill="#F47F22"/>
<circle cx="65.0123" cy="84.0804" r="6.42367" fill="#F47F22"/>
<circle cx="84.2829" cy="84.0804" r="6.42367" fill="#F47F22"/>
<circle cx="103.554" cy="84.0804" r="6.42367" fill="#F47F22"/>
</svg>
