<svg width="138" height="42" viewBox="0 0 138 42" fill="none" xmlns="http://www.w3.org/2000/svg">
<g clip-path="url(#clip0_528_9609)">
<path d="M1.12666 4.23603L7.49266 2.19003V33.624H1.12666V4.23603Z" fill="#31374A"/>
<path d="M11.8364 12.372H18.2024V15.03C19.0904 13.176 21.4484 11.91 24.3584 11.91C29.6264 11.91 32.5364 15.24 32.5364 20.724V33.624H26.1704V21.48C26.1704 19.08 24.8624 17.52 22.3364 17.52C19.9364 17.52 18.2024 19.248 18.2024 21.696V33.63H11.8364V12.372Z" fill="#31374A"/>
<path d="M36.5022 4.23603L42.6582 2.19003V12.372H47.3802V18.108H42.6582V23.802C42.6582 26.796 43.8822 27.894 46.6182 27.894C46.7022 27.894 46.9542 27.894 46.9542 27.894V33.63C46.9542 33.63 45.8142 33.63 45.1002 33.63C41.4342 33.63 36.4962 32.616 36.4962 24.774V4.23603H36.5022Z" fill="#31374A"/>
<path d="M50.2482 12.372H56.6142V15.282C57.5862 13.134 59.8602 11.91 62.7702 11.91C63.3582 11.91 64.0782 11.994 64.4142 12.036V17.982C63.8262 17.856 63.1062 17.772 62.3082 17.772C58.7262 17.772 56.6142 19.836 56.6142 23.298V33.63H50.2482V12.372Z" fill="#31374A"/>
<path d="M68.0384 12.372L74.4044 10.326V33.624H68.0384V12.372Z" fill="#31374A"/>
<path d="M78.3287 12.372H84.6947V15.156C85.2827 13.344 87.7727 11.994 90.9767 11.994C97.0067 11.994 101.519 16.842 101.519 22.998C101.519 29.112 97.0067 34.002 90.9767 34.002C87.7727 34.002 85.2827 32.694 84.6947 30.84V41.76H78.3287V12.372ZM89.8367 28.266C92.8307 28.266 95.1887 25.944 95.1887 22.998C95.1887 20.046 92.8247 17.73 89.8367 17.73C86.7587 17.73 84.3107 20.052 84.3107 22.998C84.3107 25.95 86.7587 28.266 89.8367 28.266Z" fill="#31374A"/>
<path d="M104.848 12.372L111.214 10.326V33.624H104.848V12.372Z" fill="#31374A"/>
<path d="M125.171 11.994C128.417 11.994 130.907 13.302 131.495 15.156V4.23603L137.819 2.19003V33.624H131.495V30.84C130.907 32.652 128.417 34.002 125.171 34.002C119.141 34.002 114.629 29.154 114.629 22.998C114.629 16.884 119.141 11.994 125.171 11.994ZM126.347 28.266C129.383 28.266 131.873 25.944 131.873 22.998C131.873 20.046 129.383 17.73 126.347 17.73C123.311 17.73 120.995 20.052 120.995 22.998C120.995 25.95 123.317 28.266 126.347 28.266Z" fill="#31374A"/>
<path d="M71.2249 7.36206C73.2164 7.36206 74.8309 5.74759 74.8309 3.75605C74.8309 1.76452 73.2164 0.150055 71.2249 0.150055C69.2333 0.150055 67.6189 1.76452 67.6189 3.75605C67.6189 5.74759 69.2333 7.36206 71.2249 7.36206Z" fill="#A279E5"/>
<path d="M83.351 6.34204C84.7792 6.34204 85.9369 5.18425 85.9369 3.75604C85.9369 2.32783 84.7792 1.17004 83.351 1.17004C81.9227 1.17004 80.765 2.32783 80.765 3.75604C80.765 5.18425 81.9227 6.34204 83.351 6.34204Z" fill="#CC7BCC"/>
<path d="M95.4763 6.34204C96.9045 6.34204 98.0623 5.18425 98.0623 3.75604C98.0623 2.32783 96.9045 1.17004 95.4763 1.17004C94.0481 1.17004 92.8903 2.32783 92.8903 3.75604C92.8903 5.18425 94.0481 6.34204 95.4763 6.34204Z" fill="#EBA048"/>
<path d="M110.158 1.20603C108.748 -0.203971 106.468 -0.203971 105.058 1.20603C103.648 2.61603 103.648 4.89603 105.058 6.30603L107.608 8.85603L110.158 6.30603C111.562 4.89603 111.562 2.61603 110.158 1.20603Z" fill="#F47F22"/>
</g>
<defs>
<clipPath id="clip0_528_9609">
<rect width="136.8" height="42" fill="white" transform="translate(0.928619)"/>
</clipPath>
</defs>
</svg>
