<svg width="170" height="41" viewBox="0 0 170 41" fill="none" xmlns="http://www.w3.org/2000/svg">
<g clip-path="url(#clip0_528_8075)">
<path d="M0.837158 4.59373L6.92173 2.63818V32.6825H0.837158V4.59373Z" fill="#31374A"/>
<path d="M11.0735 12.3703H17.158V14.9108C18.0068 13.1387 20.2605 11.9287 23.0419 11.9287C28.077 11.9287 30.8583 15.1115 30.8583 20.3531V32.6828H24.7738V21.0756C24.7738 18.7817 23.5236 17.2907 21.1093 17.2907C18.8154 17.2907 17.158 18.9423 17.158 21.2821V32.6885H11.0735V12.3703Z" fill="#31374A"/>
<path d="M34.6488 4.59373L40.5327 2.63818V12.3701H45.0459V17.8525H40.5327V23.2948C40.5327 26.1564 41.7025 27.2059 44.3176 27.2059C44.3979 27.2059 44.6387 27.2059 44.6387 27.2059V32.6883C44.6387 32.6883 43.5491 32.6883 42.8667 32.6883C39.3628 32.6883 34.6431 31.7191 34.6431 24.2238V4.59373H34.6488Z" fill="#31374A"/>
<path d="M47.787 12.3703H53.8716V15.1516C54.8006 13.0986 56.9741 11.9287 59.7555 11.9287C60.3175 11.9287 61.0056 12.009 61.3268 12.0491V17.7323C60.7648 17.6118 60.0766 17.5316 59.3139 17.5316C55.8903 17.5316 53.8716 19.5043 53.8716 22.8133V32.6885H47.787V12.3703Z" fill="#31374A"/>
<path d="M64.7908 12.3701L70.8754 10.4146V32.6826H64.7908V12.3701Z" fill="#31374A"/>
<path d="M74.6262 12.3701H80.7107V15.031C81.2727 13.2991 83.6527 12.0088 86.715 12.0088C92.4784 12.0088 96.791 16.6425 96.791 22.5263C96.791 28.37 92.4784 33.0438 86.715 33.0438C83.6527 33.0438 81.2727 31.7937 80.7107 30.0216V40.4589H74.6262V12.3701ZM85.6254 27.5614C88.487 27.5614 90.7408 25.3421 90.7408 22.5263C90.7408 19.7048 88.4813 17.4912 85.6254 17.4912C82.6835 17.4912 80.3437 19.7106 80.3437 22.5263C80.3437 25.3478 82.6835 27.5614 85.6254 27.5614Z" fill="#31374A"/>
<path d="M99.9733 12.3701L106.058 10.4146V32.6826H99.9733V12.3701Z" fill="#31374A"/>
<path d="M119.397 12.0088C122.5 12.0088 124.88 13.2589 125.442 15.031V4.59373L131.486 2.63818V32.6825H125.442V30.0216C124.88 31.7535 122.5 33.0438 119.397 33.0438C113.634 33.0438 109.321 28.4102 109.321 22.5263C109.321 16.6826 113.634 12.0088 119.397 12.0088ZM120.521 27.5614C123.423 27.5614 125.803 25.3421 125.803 22.5263C125.803 19.7048 123.423 17.4912 120.521 17.4912C117.62 17.4912 115.406 19.7105 115.406 22.5263C115.406 25.3478 117.625 27.5614 120.521 27.5614Z" fill="#31374A"/>
<path d="M67.8364 7.58165C69.7399 7.58165 71.283 6.03856 71.283 4.13506C71.283 2.23156 69.7399 0.688477 67.8364 0.688477C65.9329 0.688477 64.3898 2.23156 64.3898 4.13506C64.3898 6.03856 65.9329 7.58165 67.8364 7.58165Z" fill="#A279E5"/>
<path d="M79.4264 6.60693C80.7915 6.60693 81.8981 5.50032 81.8981 4.13525C81.8981 2.77018 80.7915 1.66357 79.4264 1.66357C78.0614 1.66357 76.9548 2.77018 76.9548 4.13525C76.9548 5.50032 78.0614 6.60693 79.4264 6.60693Z" fill="#CC7BCC"/>
<path d="M91.0158 6.60693C92.3809 6.60693 93.4875 5.50032 93.4875 4.13525C93.4875 2.77018 92.3809 1.66357 91.0158 1.66357C89.6507 1.66357 88.5441 2.77018 88.5441 4.13525C88.5441 5.50032 89.6507 6.60693 91.0158 6.60693Z" fill="#EBA048"/>
<path d="M105.049 1.69776C103.701 0.350095 101.522 0.350095 100.174 1.69776C98.8266 3.04543 98.8266 5.22463 100.174 6.5723L102.612 9.00957L105.049 6.5723C106.391 5.22463 106.391 3.04543 105.049 1.69776Z" fill="#F47F22"/>
<rect x="136.074" y="0.687012" width="33.7634" height="16.5878" rx="8.2939" fill="#FF5E67"/>
<path d="M143.574 11.981V5.99961H146.095C146.47 5.99961 146.793 6.06652 147.066 6.20033C147.339 6.32879 147.548 6.51612 147.693 6.76233C147.837 7.00319 147.909 7.28955 147.909 7.6214C147.909 7.91043 147.834 8.17538 147.685 8.41624C147.54 8.65174 147.313 8.83908 147.002 8.97824V8.57681C147.275 8.68386 147.497 8.82034 147.669 8.98627C147.84 9.14684 147.963 9.32883 148.038 9.53222C148.118 9.73561 148.158 9.94971 148.158 10.1745C148.158 10.7365 147.974 11.1781 147.604 11.4992C147.24 11.8204 146.74 11.981 146.103 11.981H143.574ZM144.521 11.1379H146.175C146.491 11.1379 146.743 11.0523 146.93 10.881C147.117 10.7044 147.211 10.4716 147.211 10.1825C147.211 9.88816 147.117 9.65532 146.93 9.48405C146.743 9.30742 146.491 9.2191 146.175 9.2191H144.521V11.1379ZM144.521 8.38412H146.119C146.376 8.38412 146.582 8.31186 146.737 8.16735C146.892 8.01748 146.97 7.82212 146.97 7.58126C146.97 7.3404 146.892 7.15306 146.737 7.01925C146.582 6.88544 146.376 6.81853 146.119 6.81853H144.521V8.38412ZM148.972 11.981V5.99961H152.914V6.84262H149.92V8.56075H152.754V9.40376H149.92V11.1379H152.914V11.981H148.972ZM154.693 11.981V6.84262H153.104V5.99961H157.198V6.84262H155.633V11.981H154.693ZM156.816 11.981L158.92 5.99961H160.092L162.196 11.981H161.184L160.726 10.6402H158.294L157.828 11.981H156.816ZM158.567 9.79716H160.437L159.377 6.66599H159.642L158.567 9.79716Z" fill="white"/>
</g>
<defs>
<clipPath id="clip0_528_8075">
<rect width="169" height="39.7719" fill="white" transform="translate(0.837158 0.687012)"/>
</clipPath>
</defs>
</svg>
