<svg width="94" height="56" viewBox="0 0 94 56" fill="none" xmlns="http://www.w3.org/2000/svg">
<g clip-path="url(#clip0_850_12783)">
<path d="M43.0503 29.02C38.9053 24.875 32.1853 24.875 28.0453 29.02C23.9003 33.165 23.9003 39.885 28.0453 44.025L35.5503 51.53L43.0553 44.025C47.1903 39.88 47.1903 33.16 43.0503 29.02Z" fill="#F47F22"/>
<path d="M10.61 21.22C16.4697 21.22 21.22 16.4697 21.22 10.61C21.22 4.75026 16.4697 0 10.61 0C4.75026 0 0 4.75026 0 10.61C0 16.4697 4.75026 21.22 10.61 21.22Z" fill="#A279E5"/>
<path d="M10.61 44.465C14.8129 44.465 18.22 41.0579 18.22 36.855C18.22 32.6521 14.8129 29.245 10.61 29.245C6.40711 29.245 3 32.6521 3 36.855C3 41.0579 6.40711 44.465 10.61 44.465Z" fill="#CC7BCC"/>
<path d="M35.5446 18.22C39.7475 18.22 43.1546 14.8129 43.1546 10.61C43.1546 6.40711 39.7475 3 35.5446 3C31.3417 3 27.9346 6.40711 27.9346 10.61C27.9346 14.8129 31.3417 18.22 35.5446 18.22Z" fill="#EBA048"/>
<rect x="50.1558" width="43.5" height="21.75" rx="10.875" fill="#FF5E67"/>
<path d="M59.9643 15V7.1775H63.2613C63.7513 7.1775 64.1748 7.265 64.5318 7.44C64.8888 7.608 65.1618 7.853 65.3508 8.175C65.5398 8.49 65.6343 8.8645 65.6343 9.2985C65.6343 9.6765 65.5363 10.023 65.3403 10.338C65.1513 10.646 64.8538 10.891 64.4478 11.073V10.548C64.8048 10.688 65.0953 10.8665 65.3193 11.0835C65.5433 11.2935 65.7043 11.5315 65.8023 11.7975C65.9073 12.0635 65.9598 12.3435 65.9598 12.6375C65.9598 13.3725 65.7183 13.95 65.2353 14.37C64.7593 14.79 64.1048 15 63.2718 15H59.9643ZM61.2033 13.8975H63.3663C63.7793 13.8975 64.1083 13.7855 64.3533 13.5615C64.5983 13.3305 64.7208 13.026 64.7208 12.648C64.7208 12.263 64.5983 11.9585 64.3533 11.7345C64.1083 11.5035 63.7793 11.388 63.3663 11.388H61.2033V13.8975ZM61.2033 10.296H63.2928C63.6288 10.296 63.8983 10.2015 64.1013 10.0125C64.3043 9.8165 64.4058 9.561 64.4058 9.246C64.4058 8.931 64.3043 8.686 64.1013 8.511C63.8983 8.336 63.6288 8.2485 63.2928 8.2485H61.2033V10.296ZM67.0243 15V7.1775H72.1798V8.28H68.2633V10.527H71.9698V11.6295H68.2633V13.8975H72.1798V15H67.0243ZM74.5064 15V8.28H72.4274V7.1775H77.7824V8.28H75.7349V15H74.5064ZM77.2829 15L80.0339 7.1775H81.5669L84.3179 15H82.9949L82.3964 13.2465H79.2149L78.6059 15H77.2829ZM79.5719 12.144H82.0184L80.6324 8.049H80.9789L79.5719 12.144Z" fill="white"/>
</g>
<defs>
<clipPath id="clip0_850_12783">
<rect width="93.6559" height="56" fill="white"/>
</clipPath>
</defs>
</svg>
