<svg width="295" height="70" viewBox="0 0 295 70" fill="none" xmlns="http://www.w3.org/2000/svg">
<g clip-path="url(#clip0_145_2949)">
<path d="M0.25 7.35257L10.86 3.94257V56.3326H0.25V7.35257Z" fill="#31374A"/>
<path d="M18.0996 20.9126H28.7096V25.3426C30.1896 22.2526 34.1196 20.1426 38.9696 20.1426C47.7496 20.1426 52.5996 25.6926 52.5996 34.8326V56.3326H41.9896V36.0926C41.9896 32.0926 39.8096 29.4926 35.5996 29.4926C31.5996 29.4926 28.7096 32.3726 28.7096 36.4526V56.3426H18.0996V20.9126Z" fill="#31374A"/>
<path d="M59.2092 7.35251L69.4692 3.9425V20.9125H77.3392V30.4725H69.4692V39.9625C69.4692 44.9525 71.5092 46.7825 76.0692 46.7825C76.2092 46.7825 76.6292 46.7825 76.6292 46.7825V56.3425C76.6292 56.3425 74.7292 56.3425 73.5392 56.3425C67.4292 56.3425 59.1992 54.6525 59.1992 41.5825V7.35251H59.2092Z" fill="#31374A"/>
<path d="M82.1191 20.9126H92.7291V25.7626C94.3491 22.1826 98.1392 20.1426 102.989 20.1426C103.969 20.1426 105.169 20.2826 105.729 20.3526V30.2626C104.749 30.0526 103.549 29.9126 102.219 29.9126C96.2491 29.9126 92.7291 33.3526 92.7291 39.1226V56.3426H82.1191V20.9126Z" fill="#31374A"/>
<path d="M111.77 20.9126L122.38 17.5026V56.3326H111.77V20.9126Z" fill="#31374A"/>
<path d="M128.92 20.9125H139.53V25.5525C140.51 22.5325 144.66 20.2825 150 20.2825C160.05 20.2825 167.57 28.3625 167.57 38.6225C167.57 48.8125 160.05 56.9625 150 56.9625C144.66 56.9625 140.51 54.7825 139.53 51.6925V69.8925H128.92V20.9125ZM148.1 47.4025C153.09 47.4025 157.02 43.5325 157.02 38.6225C157.02 33.7025 153.08 29.8425 148.1 29.8425C142.97 29.8425 138.89 33.7125 138.89 38.6225C138.89 43.5425 142.97 47.4025 148.1 47.4025Z" fill="#31374A"/>
<path d="M173.119 20.9126L183.729 17.5026V56.3326H173.119V20.9126Z" fill="#31374A"/>
<path d="M206.99 20.2826C212.4 20.2826 216.55 22.4626 217.53 25.5526V7.35257L228.07 3.94257V56.3326H217.53V51.6926C216.55 54.7126 212.4 56.9626 206.99 56.9626C196.94 56.9626 189.42 48.8826 189.42 38.6226C189.42 28.4326 196.94 20.2826 206.99 20.2826ZM208.95 47.4026C214.01 47.4026 218.16 43.5326 218.16 38.6226C218.16 33.7026 214.01 29.8426 208.95 29.8426C203.89 29.8426 200.03 33.7126 200.03 38.6226C200.03 43.5426 203.9 47.4026 208.95 47.4026Z" fill="#31374A"/>
<path d="M117.08 12.5625C120.4 12.5625 123.09 9.87177 123.09 6.55254C123.09 3.23331 120.4 0.542542 117.08 0.542542C113.761 0.542542 111.07 3.23331 111.07 6.55254C111.07 9.87177 113.761 12.5625 117.08 12.5625Z" fill="#A279E5"/>
<path d="M137.29 10.8626C139.671 10.8626 141.6 8.9329 141.6 6.55255C141.6 4.1722 139.671 2.24255 137.29 2.24255C134.91 2.24255 132.98 4.1722 132.98 6.55255C132.98 8.9329 134.91 10.8626 137.29 10.8626Z" fill="#CC7BCC"/>
<path d="M157.499 10.8626C159.88 10.8626 161.809 8.9329 161.809 6.55255C161.809 4.1722 159.88 2.24255 157.499 2.24255C155.119 2.24255 153.189 4.1722 153.189 6.55255C153.189 8.9329 155.119 10.8626 157.499 10.8626Z" fill="#EBA048"/>
<path d="M181.97 2.30254C179.62 -0.0474609 175.82 -0.0474609 173.47 2.30254C171.12 4.65254 171.12 8.45254 173.47 10.8025L177.72 15.0525L181.97 10.8025C184.31 8.45254 184.31 4.65254 181.97 2.30254Z" fill="#F47F22"/>
<rect x="236.07" y="0.540039" width="58" height="29" rx="14.5" fill="#FF5E67"/>
<path d="M249.148 20.54V10.11H253.544C254.198 10.11 254.762 10.2267 255.238 10.46C255.714 10.684 256.078 11.0107 256.33 11.44C256.582 11.86 256.708 12.3594 256.708 12.938C256.708 13.442 256.578 13.904 256.316 14.324C256.064 14.7347 255.668 15.0614 255.126 15.304V14.604C255.602 14.7907 255.99 15.0287 256.288 15.318C256.587 15.598 256.802 15.9154 256.932 16.27C257.072 16.6247 257.142 16.998 257.142 17.39C257.142 18.37 256.82 19.14 256.176 19.7C255.542 20.26 254.669 20.54 253.558 20.54H249.148ZM250.8 19.07H253.684C254.235 19.07 254.674 18.9207 255 18.622C255.327 18.314 255.49 17.908 255.49 17.404C255.49 16.8907 255.327 16.4847 255 16.186C254.674 15.878 254.235 15.724 253.684 15.724H250.8V19.07ZM250.8 14.268H253.586C254.034 14.268 254.394 14.142 254.664 13.89C254.935 13.6287 255.07 13.288 255.07 12.868C255.07 12.448 254.935 12.1214 254.664 11.888C254.394 11.6547 254.034 11.538 253.586 11.538H250.8V14.268ZM258.562 20.54V10.11H265.436V11.58H260.214V14.576H265.156V16.046H260.214V19.07H265.436V20.54H258.562ZM268.538 20.54V11.58H265.766V10.11H272.906V11.58H270.176V20.54H268.538ZM272.24 20.54L275.908 10.11H277.952L281.62 20.54H279.856L279.058 18.202H274.816L274.004 20.54H272.24ZM275.292 16.732H278.554L276.706 11.272H277.168L275.292 16.732Z" fill="white"/>
</g>
<defs>
<clipPath id="clip0_145_2949">
<rect width="293.82" height="69.3525" fill="white" transform="translate(0.25 0.540039)"/>
</clipPath>
</defs>
</svg>
