<svg width="110" height="125" viewBox="0 0 110 125" fill="none" xmlns="http://www.w3.org/2000/svg">
<path d="M94.8213 67.1599C86.5313 58.8699 73.0912 58.8699 64.8112 67.1599C56.5212 75.4499 56.5212 88.8899 64.8112 97.1699L79.8213 112.18L94.8313 97.1699C103.101 88.8799 103.101 75.4399 94.8213 67.1599Z" fill="#F47F22"/>
<path d="M29.9407 51.5599C41.6602 51.5599 51.1607 42.0594 51.1607 30.3399C51.1607 18.6204 41.6602 9.11987 29.9407 9.11987C18.2212 9.11987 8.7207 18.6204 8.7207 30.3399C8.7207 42.0594 18.2212 51.5599 29.9407 51.5599Z" fill="#A279E5"/>
<path d="M29.9407 98.0499C38.3465 98.0499 45.1607 91.2356 45.1607 82.8299C45.1607 74.4241 38.3465 67.6099 29.9407 67.6099C21.5349 67.6099 14.7207 74.4241 14.7207 82.8299C14.7207 91.2356 21.5349 98.0499 29.9407 98.0499Z" fill="#CC7BCC"/>
<path d="M79.8098 45.5599C88.2156 45.5599 95.0298 38.7456 95.0298 30.3399C95.0298 21.9341 88.2156 15.1199 79.8098 15.1199C71.4041 15.1199 64.5898 21.9341 64.5898 30.3399C64.5898 38.7456 71.4041 45.5599 79.8098 45.5599Z" fill="#EBA048"/>
</svg>
